<?xml version="1.0" encoding="UTF-8"?>
<!DOCTYPE svg PUBLIC "-//W3C//DTD SVG 1.1//EN" "http://www.w3.org/Graphics/SVG/1.1/DTD/svg11.dtd">
<!-- Creator: CorelDRAW -->
<svg xmlns="http://www.w3.org/2000/svg" xml:space="preserve" width="100mm" height="100mm" style="shape-rendering:geometricPrecision; text-rendering:geometricPrecision; image-rendering:optimizeQuality; fill-rule:evenodd; clip-rule:evenodd"
viewBox="0 0 100 100"
 xmlns:xlink="http://www.w3.org/1999/xlink">
 <defs>
  <style type="text/css">
   <![CDATA[
    .fil5 {fill:#DE9251}
    .fil9 {fill:#DF9352}
    .fil3 {fill:#E4A362}
    .fil2 {fill:#E6A462}
    .fil4 {fill:#EC7263}
    .fil6 {fill:#FAB179}
    .fil7 {fill:#FCBC7C}
    .fil0 {fill:#FDBD7D}
    .fil8 {fill:#FDEEE4}
    .fil1 {fill:#FEFCD0}
   ]]>
  </style>
 </defs>
 <g id="Capa_x0020_1">
  <metadata id="CorelCorpID_0Corel-Layer"/>
  <g id="_223479072">
   <path id="_223474896" class="fil0" d="M14.4212 56.1311l5.2173 2.0781 -3.3297 -6.1903 5.4461 2.9315c0.8232,1.556 1.5621,4.2734 3.0982,5.0303 1.7658,0.8701 10.88,2.6412 13.163,2.7413l-1.904 -6.6766 5.2706 0.4908 1.4187 6.5245 1.7482 0.3809c0.4664,0.0408 1.1198,0.0383 1.6067,0.0535 3.2453,0.1011 7.7948,0.1858 10.8815,-0.2267l1.4295 -6.3879c0.0195,-0.1381 0.0876,-0.1695 0.1451,-0.245l5.0575 -0.5273 -1.8812 6.681c13.5187,-2.8408 13.3568,-1.3173 16.0917,-7.2484 1.3354,-2.8959 1.3043,-2.0802 4.4255,-3.0922l1.1604 -0.4184 -3.3019 6.0698 5.8707 -2.2704c1.2278,-0.6438 2.9848,-3.9064 3.8831,-5.1799l3.7852 -5.3879c2.4544,-5.0534 -4.4059,-8.9011 -7.3604,-10.0919 -9.178,-3.6994 -20.5023,-5.6894 -30.9916,-5.6894l0.1922 2.4154c8.5107,0.8241 15.2968,1.0967 23.4541,3.4763 5.5197,1.9696 15.0172,5.5586 7.6957,11.3652 -0.9305,0.7379 -1.0219,0.9294 -2.0347,0.7366 -1.1699,1.7314 -5.5655,2.7491 -7.3909,3.235 -15.2808,4.0678 -46.418,4.4774 -60.2354,-1.9485 -0.9366,-0.4356 -1.1291,-0.6074 -1.5836,-1.2781 -1.0358,0.1818 -1.2849,-0.1362 -2.2273,-0.914 -7.5387,-6.2223 5.155,-10.6896 7.9466,-11.0178 3.4352,-2.2412 18.2332,-3.0981 23.2939,-3.6459l-0.4074 -2.327c-8.0683,-0.863 -43.8441,4.7983 -37.537,15.9201 0.6502,1.1466 1.2287,1.3371 2.053,2.5333l3.8075 5.3644c0.7726,1.1616 1.0141,1.6831 2.0431,2.7356z"/>
   <path id="_223474536" class="fil1" d="M22.5205 43.7322c-1.018,0.5547 -2.5144,1.2115 -3.6893,1.8063 -0.9816,0.4968 -2.5878,1.7121 -3.3824,1.9439 0.4545,0.6707 0.647,0.8425 1.5836,1.2781 13.8174,6.4259 44.9546,6.0163 60.2354,1.9485 1.8254,-0.4859 6.221,-1.5036 7.3909,-3.235 -0.0448,-0.013 -6.3261,-3.4806 -6.3864,-3.5382 -3.7514,-0.9277 -6.9953,-2.3234 -11.2523,-3.1657 -3.1977,-0.6327 -9.4934,-1.6833 -12.7032,-1.3568 -0.5684,1.053 -3.1042,2.2577 -3.1083,2.2506 -0.0423,-0.0737 -0.1694,0.1026 -0.2469,0.1639l-0.1993 -0.0003c-4.7312,-2.6766 -3.2514,-2.72 -6.3507,-2.4988 -2.6931,0.1922 -5.3891,0.4697 -8.0098,0.8595 -5.4157,0.8054 -9.034,2.0892 -13.8813,3.544z"/>
   <path id="_223475328" class="fil2" d="M46.2081 69.5986c1.5496,-1.3375 2.436,-1.8719 4.9013,-1.4344 1.8066,0.3206 3.2616,1.4672 2.3002,3.4108 -1.2451,2.5173 -7.4123,2.7433 -7.2015,-1.9764zm19.5201 -2.7706c6.5161,-2.0088 2.7797,3.9976 -0.7062,5.1691 -4.4103,1.4822 -5.6166,-3.2199 0.7062,-5.1691zm-32.786 4.1048c-0.6968,-0.5295 -3.1797,-2.7457 -1.9439,-4.0346 1.3872,-1.4468 8.4718,0.7187 7.1806,5.0283 -1.9089,0.5204 -3.8229,0.0805 -5.2367,-0.9937zm-13.5821 -7.9926c2.3106,0.9779 5.9371,4.9414 4.2333,6.0616 0.3092,1.1416 0.2067,0.6141 0.8938,1.5757 0.4001,0.5597 0.1358,0.2628 0.5937,0.7982 0.5698,0.6662 0.2555,0.339 0.6292,0.6009 6.72,1.3904 12.1672,2.8779 19.3359,3.1914 7.8424,0.343 13.0437,-0.5938 20.5762,-1.206 0.9515,-1.3755 3.7667,-3.1306 4.582,-3.8751 1.4319,-1.3075 5.5137,-5.7905 6.1348,-7.5926 -7.3419,3.189 -22.1175,4.4689 -30.5347,4.0204 -5.2308,-0.2787 -10.1752,-0.8773 -15.2431,-2.0495 -4.9745,-1.1506 -8.4526,-2.5046 -12.965,-3.9725 0.4967,0.9897 0.9044,1.9066 1.7639,2.4475z"/>
   <path id="_223475352" class="fil2" d="M14.4212 56.1311c0.3781,1.0366 1.1854,1.78 1.7639,2.6063 0.8965,0.1535 9.1418,3.3032 13.961,4.3732 10.6384,2.3621 22.7885,3.0287 33.6062,1.1569 3.0301,-0.5243 12.9611,-2.3155 14.7354,-3.8376 -0.3998,-0.8153 -0.3059,-0.0194 0.1707,-0.9031 1.7386,-3.2239 1.8126,-3.0884 3.6475,-7.0782 -3.1212,1.012 -3.0901,0.1963 -4.4255,3.0922 -2.7349,5.9311 -2.573,4.4076 -16.0917,7.2484l1.8812 -6.681 -5.0575 0.5273c-0.0575,0.0755 -0.1256,0.1069 -0.1451,0.245l-1.4295 6.3879c-3.0867,0.4125 -7.6362,0.3278 -10.8815,0.2267 -0.4869,-0.0152 -1.1403,-0.0127 -1.6067,-0.0535l-1.7482 -0.3809 -1.4187 -6.5245 -5.2706 -0.4908 1.904 6.6766c-2.283,-0.1001 -11.3972,-1.8712 -13.163,-2.7413 -1.5361,-0.7569 -2.275,-3.4743 -3.0982,-5.0303l-5.4461 -2.9315 3.3297 6.1903 -5.2173 -2.0781z"/>
   <path id="_223475784" class="fil3" d="M21.1681 35.5506c0.7395,1.5916 0.5085,5.9956 1.3524,8.1816 4.8473,-1.4548 8.4656,-2.7386 13.8813,-3.544 2.6207,-0.3898 5.3167,-0.6673 8.0098,-0.8595 3.0993,-0.2212 1.6195,-0.1778 6.3507,2.4988l0.1993 0.0003c0.0775,-0.0613 0.2046,-0.2376 0.2469,-0.1639 0.0041,0.0071 2.5399,-1.1976 3.1083,-2.2506l-0.4021 -0.0015c-0.6128,0.6643 0.0424,0.1779 -0.9732,0.6503 -0.8971,0.2198 -0.6209,0.4577 -1.7022,0.5094l-0.9535 0.3632c-1.3421,0.267 -2.0474,-0.9441 -2.6319,-1.8821l-1.1587 -0.107c-1.0034,-2.736 -1.615,-3.6389 -2.0332,-7.0409 -5.0607,0.5478 -19.8587,1.4047 -23.2939,3.6459z"/>
   <path id="_223475760" class="fil2" d="M54.3168 39.4133c3.2098,-0.3265 9.5055,0.7241 12.7032,1.3568 4.257,0.8423 7.5009,2.238 11.2523,3.1657 -0.1745,-1.1123 0.8492,-6.0011 0.7254,-8.5636 -8.1573,-2.3796 -14.9434,-2.6522 -23.4541,-3.4763 0.1106,3.0023 0.0354,5.3783 -1.2268,7.5174z"/>
   <path id="_223476072" class="fil4" d="M44.0546 29.5777l0.4074 2.327c0.4182,3.402 1.0298,4.3049 2.0332,7.0409l1.1587 0.107c-1.3753,-3.5437 -2.1612,-6.5215 -1.1268,-10.6303 0.7905,-3.14 2.1813,-6.749 4.583,-7.7647 2.5969,7.2083 4.7195,10.9406 2.8046,18.7542l0.4021 0.0015c1.2622,-2.1391 1.3374,-4.5151 1.2268,-7.5174l-0.1922 -2.4154c-0.0717,-8.1596 -0.801,-8.9438 -3.5357,-15.5222 -5.2326,0.1166 -7.7611,11.0667 -7.7611,15.6194z"/>
   <path id="_223476552" class="fil2" d="M28.8851 76.3103c1.4868,0.3543 2.4787,0.3358 3.3688,1.3093 0.8117,0.8878 0.9489,1.7246 1.9468,2.6941l2.4216 0.8544 -1.9624 -3.5782 8.2288 1.0233 1.0208 3.307 1.909 -0.0768c0.0568,0.0866 0.1686,0.0994 0.1959,0.2413l0.4885 0.7 -0.7784 -4.0137 8.4993 -0.0679 -0.3686 1.482 2.9519 -0.9002 0.2981 -0.6913 3.066 -0.5333 -1.0778 -0.1999c1.3263,-0.5296 2.8686,-1.2387 3.5723,-2.2333 -10.9446,2.0779 -25.2822,0.7296 -35.8972,-2.1023 0.5695,1.1723 1.0624,2.2533 2.1166,2.7855z"/>
   <path id="_223476216" class="fil5" d="M15.4488 47.4824c0.7946,-0.2318 2.4008,-1.4471 3.3824,-1.9439 1.1749,-0.5948 2.6713,-1.2516 3.6893,-1.8063 -0.8439,-2.186 -0.6129,-6.59 -1.3524,-8.1816 -2.7916,0.3282 -15.4853,4.7955 -7.9466,11.0178 0.9424,0.7778 1.1915,1.0958 2.2273,0.914z"/>
   <path id="_223476576" class="fil5" d="M78.2723 43.9358c0.0603,0.0576 6.3416,3.5252 6.3864,3.5382 1.0128,0.1928 1.1042,0.0013 2.0347,-0.7366 7.3215,-5.8066 -2.176,-9.3956 -7.6957,-11.3652 0.1238,2.5625 -0.8999,7.4513 -0.7254,8.5636z"/>
   <path id="_223476096" class="fil0" d="M78.4877 60.4299c-1.7743,1.5221 -11.7053,3.3133 -14.7354,3.8376 -10.8177,1.8718 -22.9678,1.2052 -33.6062,-1.1569 -4.8192,-1.07 -13.0645,-4.2197 -13.961,-4.3732 0.5424,0.8452 0.6222,1.2258 1.4111,1.7553 4.5124,1.4679 7.9905,2.8219 12.965,3.9725 5.0679,1.1722 10.0123,1.7708 15.2431,2.0495 8.4172,0.4485 23.1928,-0.8314 30.5347,-4.0204l6.8739 -2.2996c0.4186,-0.6509 0.6652,-1.0521 1.0583,-1.7519l-5.7835 1.9871z"/>
   <path id="_223475928" class="fil6" d="M47.6539 39.0526c0.5845,0.938 1.2898,2.1491 2.6319,1.8821l0.9535 -0.3632 -0.4621 -0.2141c-3.8225,-0.2688 -3.0957,-9.0063 -1.6236,-11.0632l2.518 -2.4395c2.1693,1.9509 2.2927,10.1453 1.2699,13.2074 1.0156,-0.4724 0.3604,0.014 0.9732,-0.6503 1.9149,-7.8136 -0.2077,-11.5459 -2.8046,-18.7542 -2.4017,1.0157 -3.7925,4.6247 -4.583,7.7647 -1.0344,4.1088 -0.2485,7.0866 1.1268,10.6303z"/>
   <path id="_223477200" class="fil7" d="M65.6222 73.962c-7.5325,0.6122 -12.7338,1.549 -20.5762,1.206 -7.1687,-0.3135 -12.6159,-1.801 -19.3359,-3.1914 0.5383,1.3427 0.0165,0.8901 1.0584,1.5482 10.615,2.8319 24.9526,4.1802 35.8972,2.1023l11.0222 -2.21c0.786,-0.8274 0.7247,-0.3586 1.0583,-1.5966l-9.124 2.1415z"/>
   <path id="_223477104" class="fil8" d="M51.2393 40.5715c1.0813,-0.0517 0.8051,-0.2896 1.7022,-0.5094 1.0228,-3.0621 0.8994,-11.2565 -1.2699,-13.2074l-2.518 2.4395c-1.4721,2.0569 -2.1989,10.7944 1.6236,11.0632l0.4621 0.2141z"/>
   <path id="_223477344" class="fil5" d="M76.339 62.4943c-0.6211,1.8021 -4.7029,6.2851 -6.1348,7.5926 -0.8153,0.7445 -3.6305,2.4996 -4.582,3.8751l9.124 -2.1415c0.8187,-0.6101 1.4809,-1.8207 2.1167,-2.6395l-1.0412 -0.4587c0.0317,-1.8809 1.2258,-3.1053 2.1372,-3.9272 0.9057,-0.8167 2.1935,-1.9818 3.4901,-2.3705 0.5839,-0.5789 1.3424,-1.6264 1.7639,-2.2299l-6.8739 2.2996z"/>
   <path id="_223476696" class="fil0" d="M46.5029 82.7847l0.7249 2.7875c1.1292,0.5023 4.6637,0.7384 5.4805,0 0.5161,-1.3285 0.9329,-3.5846 1.1469,-5.3871l0.3686 -1.482 -8.4993 0.0679 0.7784 4.0137z"/>
   <path id="_223477152" class="fil0" d="M60.1712 78.0603l-3.066 0.5333 -0.2981 0.6913c-0.6541,1.8813 -1.169,4.0556 -1.9475,5.6854l1.895 -0.1019c1.0874,0.42 3.2701,0.3311 3.8823,-0.3545 0.0854,-0.0742 0.1934,-0.1625 0.2564,-0.2224 1.3397,-1.2741 3.8157,-5.3484 4.2976,-6.7312l-5.0197 0.5z"/>
   <path id="_223478160" class="fil0" d="M36.6223 81.1681l2.0177 2.993c0.2464,0.2666 -0.0649,0.1089 0.7691,0.4236 0.4016,0.1515 0.5421,0.1755 1.084,0.3153 1.0971,0.2831 1.5566,0.4703 2.8559,-0.0316l1.5674 0.038 -1.0069 -2.9862 -1.0208 -3.307 -8.2288 -1.0233 1.9624 3.5782z"/>
   <path id="_223477512" class="fil5" d="M62.6657 75.6271c-0.7037,0.9946 -2.246,1.7037 -3.5723,2.2333l1.0778 0.1999 5.0197 -0.5c-0.4819,1.3828 -2.9579,5.4571 -4.2976,6.7312 -0.063,0.0599 -0.171,0.1482 -0.2564,0.2224 1.0381,-0.0609 1.313,-0.0527 2.1186,-0.349 1.9929,-0.733 0.7362,-0.1546 1.4074,-1.0604l-0.2011 0.1809c0.5426,-1.3311 3.3188,-5.9442 4.84,-6.4912 0.6912,-0.2485 2.3649,-0.5538 3.1222,-0.699 0.6258,-1.0169 1.1413,-1.4739 1.7639,-2.6781l-11.0222 2.21z"/>
   <path id="_223477608" class="fil0" d="M46.2081 69.5986c-0.2108,4.7197 5.9564,4.4937 7.2015,1.9764 0.9614,-1.9436 -0.4936,-3.0902 -2.3002,-3.4108 -2.4653,-0.4375 -3.3517,0.0969 -4.9013,1.4344z"/>
   <path id="_223477728" class="fil0" d="M65.7282 66.828c-6.3228,1.9492 -5.1165,6.6513 -0.7062,5.1691 3.4859,-1.1715 7.2223,-7.1779 0.7062,-5.1691z"/>
   <path id="_223478016" class="fil0" d="M38.1789 71.9265c1.2912,-4.3096 -5.7934,-6.4751 -7.1806,-5.0283 -1.2358,1.2889 1.2471,3.5051 1.9439,4.0346 1.4138,1.0742 3.3278,1.5141 5.2367,0.9937z"/>
   <path id="_223478400" class="fil0" d="M64.1629 83.1045c1.198,0.2915 0.0886,0.3082 1.3042,-0.0954 3.0898,-1.026 4.7202,-4.5491 6.4569,-6.9139 -0.7573,0.1452 -2.431,0.4505 -3.1222,0.699 -1.5212,0.547 -4.2974,5.1601 -4.84,6.4912l0.2011 -0.1809z"/>
   <path id="_223478712" class="fil9" d="M82.3059 52.4486c-1.8349,3.9898 -1.9089,3.8543 -3.6475,7.0782 -0.4766,0.8837 -0.5705,0.0878 -0.1707,0.9031l5.7835 -1.9871c0.8676,-0.6927 1.2972,-1.5691 1.7639,-2.6132l-5.8707 2.2704 3.3019 -6.0698 -1.1604 0.4184z"/>
   <path id="_223478664" class="fil0" d="M35.5879 82.7517l0.1313 -0.1233c-0.4925,-0.8243 -1.0792,-1.3868 -1.5185,-2.3147 -0.9979,-0.9695 -1.1351,-1.8063 -1.9468,-2.6941 -0.8901,-0.9735 -1.882,-0.955 -3.3688,-1.3093 0.6232,2.6258 3.6184,5.2877 5.6672,6.8646l1.0356 -0.4232z"/>
   <path id="_223478976" class="fil5" d="M53.8552 80.1851c-0.214,1.8025 -0.6308,4.0586 -1.1469,5.3871 0.6071,0 1.8019,0.088 2.3217,0.0534 2.4991,-0.1663 1.1232,0.1503 1.7246,-0.7572l-1.895 0.1019c0.7785,-1.6298 1.2934,-3.8041 1.9475,-5.6854l-2.9519 0.9002z"/>
   <path id="_223478352" class="fil7" d="M76.8629 69.181c0.8903,-1.4232 1.5374,-2.1563 2.4003,-3.4335 0.689,-1.02 1.8401,-2.2733 2.1858,-3.3229 -1.2966,0.3887 -2.5844,1.5538 -3.4901,2.3705 -0.9114,0.8219 -2.1055,2.0463 -2.1372,3.9272l1.0412 0.4587z"/>
   <path id="_223479504" class="fil5" d="M43.349 84.8684c0.462,1.1035 -0.7479,0.501 1.3604,0.7537 0.2997,0.0359 2.1116,-0.0499 2.5184,-0.0499l-0.7249 -2.7875 -0.4885 -0.7c-0.0273,-0.1419 -0.1391,-0.1547 -0.1959,-0.2413l-1.909 0.0768 1.0069 2.9862 -1.5674 -0.038z"/>
   <path id="_223479120" class="fil7" d="M23.5934 69.0018c1.7038,-1.1202 -1.9227,-5.0837 -4.2333,-6.0616 0.3168,1.2759 0.1671,0.6132 0.9081,1.6184 0.4517,0.6128 0.577,0.8348 0.9962,1.4704 0.6149,0.9322 1.5832,2.4119 2.329,2.9728z"/>
   <path id="_223479600" class="fil5" d="M35.5879 82.7517c0.4337,1.0358 -0.4378,0.3586 1.064,1.059 0.4647,0.2167 1.3027,0.3056 1.9881,0.3504l-2.0177 -2.993 -2.4216 -0.8544c0.4393,0.9279 1.026,1.4904 1.5185,2.3147l-0.1313 0.1233z"/>
  </g>
 </g>
</svg>
